<?xml version="1.0" encoding="UTF-8" standalone="no"?>
<!-- Created with Inkscape (http://www.inkscape.org/) -->

<svg
   xmlns:dc="http://purl.org/dc/elements/1.1/"
   xmlns:cc="http://creativecommons.org/ns#"
   xmlns:rdf="http://www.w3.org/1999/02/22-rdf-syntax-ns#"
   xmlns:svg="http://www.w3.org/2000/svg"
   xmlns="http://www.w3.org/2000/svg"
   xmlns:xlink="http://www.w3.org/1999/xlink"
   xmlns:sodipodi="http://sodipodi.sourceforge.net/DTD/sodipodi-0.dtd"
   xmlns:inkscape="http://www.inkscape.org/namespaces/inkscape"
   sodipodi:docname="meta_01.svg"
   inkscape:version="0.92.5 (2060ec1f9f, 2020-04-08)"
   sodipodi:version="0.32"
   id="svg1770"
   height="48"
   width="58"
   inkscape:output_extension="org.inkscape.output.svg.inkscape"
   version="1.1">
  <defs
     id="defs3">
    <inkscape:perspective
       sodipodi:type="inkscape:persp3d"
       inkscape:vp_x="0 : 24 : 1"
       inkscape:vp_y="0 : 1000 : 0"
       inkscape:vp_z="48 : 24 : 1"
       inkscape:persp3d-origin="24 : 16 : 1"
       id="perspective35" />
    <linearGradient
       id="linearGradient2103">
      <stop
         style="stop-color:#ffffff;stop-opacity:1;"
         offset="0"
         id="stop2105" />
      <stop
         style="stop-color:#e6e6e6;stop-opacity:1;"
         offset="1"
         id="stop2107" />
    </linearGradient>
    <linearGradient
       id="linearGradient2064">
      <stop
         style="stop-color:#b2b2b2;stop-opacity:1.0000000;"
         offset="0.0000000"
         id="stop2066" />
      <stop
         style="stop-color:#dcdcde;stop-opacity:1.0000000;"
         offset="1.0000000"
         id="stop2068" />
    </linearGradient>
    <linearGradient
       id="linearGradient2052">
      <stop
         style="stop-color:#aaaaaa;stop-opacity:1.0000000;"
         offset="0.0000000"
         id="stop2054" />
      <stop
         style="stop-color:#c8c8ca;stop-opacity:1.0000000;"
         offset="1.0000000"
         id="stop2056" />
    </linearGradient>
    <linearGradient
       id="linearGradient1784">
      <stop
         id="stop1785"
         offset="0.0000000"
         style="stop-color:#ffffff;stop-opacity:1.0000000;" />
      <stop
         id="stop1786"
         offset="1.0000000"
         style="stop-color:#dcdcde;stop-opacity:1.0000000;" />
    </linearGradient>
    <linearGradient
       y2="549.61267"
       x2="511.68912"
       y1="259.81915"
       x1="250.05389"
       gradientTransform="matrix(1.593044,0,0,1.241206,-129.6924,-73.34169)"
       gradientUnits="userSpaceOnUse"
       id="linearGradient1789"
       xlink:href="#linearGradient1784"
       inkscape:collect="always" />
    <linearGradient
       gradientUnits="userSpaceOnUse"
       y2="1222.1282"
       x2="69.096588"
       y1="1468.6681"
       x1="205.67348"
       gradientTransform="matrix(2.470094,0,0,0.404843,-5.695438,24.53693)"
       id="linearGradient1794"
       xlink:href="#linearGradient2052"
       inkscape:collect="always" />
    <linearGradient
       gradientUnits="userSpaceOnUse"
       y2="65.461601"
       x2="1180.5344"
       y1="284.34747"
       x1="1390.4071"
       gradientTransform="matrix(0.493865,0,0,2.024845,-5.695438,24.53693)"
       id="linearGradient1804"
       xlink:href="#linearGradient2064"
       inkscape:collect="always" />
    <linearGradient
       y2="549.61267"
       x2="511.68912"
       y1="259.81915"
       x1="250.05389"
       gradientTransform="matrix(1.593044,0,0,1.241206,-129.6924,-73.34169)"
       gradientUnits="userSpaceOnUse"
       id="linearGradient2083"
       xlink:href="#linearGradient1784"
       inkscape:collect="always" />
    <linearGradient
       y2="1222.1282"
       x2="69.096588"
       y1="1468.6681"
       x1="205.67348"
       gradientTransform="matrix(2.470094,0,0,0.404843,-5.695438,24.53693)"
       gradientUnits="userSpaceOnUse"
       id="linearGradient2085"
       xlink:href="#linearGradient2052"
       inkscape:collect="always" />
    <linearGradient
       y2="65.461601"
       x2="1180.5344"
       y1="284.34747"
       x1="1390.4071"
       gradientTransform="matrix(0.493865,0,0,2.024845,-5.695438,24.53693)"
       gradientUnits="userSpaceOnUse"
       id="linearGradient2087"
       xlink:href="#linearGradient2064"
       inkscape:collect="always" />
    <linearGradient
       y2="65.461601"
       x2="1180.5344"
       y1="284.34747"
       x1="1390.4071"
       gradientTransform="matrix(0.02351632,0,0,0.119682,11.31112,7.804527)"
       gradientUnits="userSpaceOnUse"
       id="linearGradient2094"
       xlink:href="#linearGradient2064"
       inkscape:collect="always" />
    <linearGradient
       y2="1222.1282"
       x2="69.096588"
       y1="1468.6681"
       x1="205.67348"
       gradientTransform="matrix(0.117618,0,0,0.02392903,2.29468,7.804527)"
       gradientUnits="userSpaceOnUse"
       id="linearGradient2098"
       xlink:href="#linearGradient2052"
       inkscape:collect="always" />
    <linearGradient
       y2="15.03308"
       x2="13.165886"
       y1="42.567181"
       x1="34.79232"
       gradientTransform="matrix(1.135639,0,0,1.098332,-5.414986,-5.868595)"
       gradientUnits="userSpaceOnUse"
       id="linearGradient2101"
       xlink:href="#linearGradient2103"
       inkscape:collect="always" />
    <linearGradient
       inkscape:collect="always"
       xlink:href="#linearGradient2103"
       id="linearGradient2416"
       gradientUnits="userSpaceOnUse"
       gradientTransform="matrix(1.135639,0,0,1.098332,-5.414986,-5.868595)"
       x1="34.79232"
       y1="42.567181"
       x2="13.165886"
       y2="15.03308" />
    <linearGradient
       inkscape:collect="always"
       xlink:href="#linearGradient2052"
       id="linearGradient2418"
       gradientUnits="userSpaceOnUse"
       gradientTransform="matrix(0.117618,0,0,0.02392903,2.29468,7.804527)"
       x1="205.67348"
       y1="1468.6681"
       x2="69.096588"
       y2="1222.1282" />
    <linearGradient
       inkscape:collect="always"
       xlink:href="#linearGradient2064"
       id="linearGradient2420"
       gradientUnits="userSpaceOnUse"
       gradientTransform="matrix(0.02351632,0,0,0.119682,11.31112,7.804527)"
       x1="1390.4071"
       y1="284.34747"
       x2="1180.5344"
       y2="65.461601" />
    <linearGradient
       inkscape:collect="always"
       xlink:href="#linearGradient2064"
       id="linearGradient2721"
       gradientUnits="userSpaceOnUse"
       gradientTransform="matrix(0.02351632,0,0,0.119682,11.31112,9.7235324)"
       x1="1390.4071"
       y1="284.34747"
       x2="1180.5344"
       y2="65.461601" />
    <linearGradient
       inkscape:collect="always"
       xlink:href="#linearGradient2052"
       id="linearGradient2725"
       gradientUnits="userSpaceOnUse"
       gradientTransform="matrix(0.117618,0,0,0.02392903,2.29468,9.7235324)"
       x1="205.67348"
       y1="1468.6681"
       x2="69.096588"
       y2="1222.1282" />
    <linearGradient
       inkscape:collect="always"
       xlink:href="#linearGradient2103"
       id="linearGradient2728"
       gradientUnits="userSpaceOnUse"
       gradientTransform="matrix(1.3965841,0,0,1.1183093,-7.5816242,-6.4401439)"
       x1="34.79232"
       y1="42.567181"
       x2="13.165886"
       y2="15.03308" />
    <inkscape:perspective
       id="perspective3628"
       inkscape:persp3d-origin="0.5 : 0.33333333 : 1"
       inkscape:vp_z="1 : 0.5 : 1"
       inkscape:vp_y="0 : 1000 : 0"
       inkscape:vp_x="0 : 0.5 : 1"
       sodipodi:type="inkscape:persp3d" />
    <inkscape:perspective
       id="perspective2856"
       inkscape:persp3d-origin="0.5 : 0.33333333 : 1"
       inkscape:vp_z="1 : 0.5 : 1"
       inkscape:vp_y="0 : 1000 : 0"
       inkscape:vp_x="0 : 0.5 : 1"
       sodipodi:type="inkscape:persp3d" />
    <inkscape:perspective
       id="perspective2882"
       inkscape:persp3d-origin="0.5 : 0.33333333 : 1"
       inkscape:vp_z="1 : 0.5 : 1"
       inkscape:vp_y="0 : 1000 : 0"
       inkscape:vp_x="0 : 0.5 : 1"
       sodipodi:type="inkscape:persp3d" />
  </defs>
  <sodipodi:namedview
     inkscape:window-y="25"
     inkscape:window-x="217"
     inkscape:window-height="972"
     inkscape:window-width="1399"
     inkscape:current-layer="layer1"
     inkscape:cy="24"
     inkscape:cx="29"
     inkscape:zoom="8.8448276"
     inkscape:pageshadow="2"
     inkscape:pageopacity="0.0"
     borderopacity="1.0"
     bordercolor="#666666"
     pagecolor="#ffffff"
     id="base"
     showgrid="false"
     inkscape:window-maximized="0"
     showguides="true"
     inkscape:guide-bbox="true">
    <sodipodi:guide
       orientation="0,1"
       position="13.725847,-18.581249"
       id="guide4513"
       inkscape:locked="false" />
  </sodipodi:namedview>
  <metadata
     id="metadata4">
    <rdf:RDF>
      <cc:Work
         rdf:about="">
        <dc:format>image/svg+xml</dc:format>
        <dc:type
           rdf:resource="http://purl.org/dc/dcmitype/StillImage" />
        <dc:title />
      </cc:Work>
    </rdf:RDF>
  </metadata>
  <g
     id="layer1"
     inkscape:groupmode="layer"
     inkscape:label="Layer 1">
    <rect
       ry="4.58845"
       rx="4.4116731"
       y="4.2626371"
       x="4.0676327"
       height="39.583111"
       width="49.973518"
       id="rect1788"
       style="fill:url(#linearGradient2728);fill-opacity:1;stroke:#000000;stroke-width:1;stroke-linecap:round;stroke-linejoin:miter;stroke-miterlimit:4;stroke-opacity:1;stroke-dasharray:none;stroke-dashoffset:0" />
    <path
       style="fill:#ffffff;fill-opacity:1;stroke:none"
       d="m 5.0481053,40.132178 c 0,-10.223586 0.016264,-30.1890134 0,-31.4662577 C 5.0284682,7.1238157 6.6948399,5.4537654 8.2300858,5.307163 9.2543395,5.2093558 39.605559,5.3660886 50.62464,5.3955514 39.782336,5.8669559 11.098977,7.309095 9.9996929,7.3918717 8.4024922,7.5121417 7.2092865,8.688987 7.070314,10.851587 7.0105024,11.782334 5.5489726,30.026444 5.0481053,40.132178 z"
       id="path3618"
       sodipodi:nodetypes="csscssc" />
    <path
       style="fill:#adadad;fill-opacity:1;stroke:none"
       d="m 53.233505,8.112138 c 0,10.223587 -0.01626,30.277403 0,31.554642 0.01964,1.542105 -1.646735,3.212155 -3.18198,3.358757 -1.024254,0.09781 -31.095353,-0.05893 -42.1144352,-0.08839 10.8423052,-0.471403 40.8868282,-0.624017 41.9818522,-0.7513 1.0347,-0.12027 2.310013,-1.426557 2.386485,-2.651651 0.05811,-0.930855 0.427211,-21.316323 0.928078,-31.422058 z"
       id="path3618-6"
       sodipodi:nodetypes="csscssc" />
    <g
       aria-label="☢"
       style="font-style:normal;font-weight:normal;font-size:37.36304855px;line-height:1.25;font-family:sans-serif;letter-spacing:0px;word-spacing:0px;fill:#000000;fill-opacity:1;stroke:none;stroke-width:0;stroke-miterlimit:4;stroke-dasharray:none;stroke-opacity:1"
       id="text851">
      <path
         inkscape:connector-curvature="0"
         d="m 28.762832,10.353731 q 6.987328,0 11.803658,6.768404 2.079779,3.192644 2.079779,7.09679 0,6.129875 -5.783245,10.745525 -3.539273,2.681821 -7.406932,2.681821 h -0.583798 q -6.932597,0 -11.71244,-7.060303 -1.806124,-3.1744 -1.806124,-6.421774 v -0.510823 q 0,-6.184606 6.166362,-10.891474 3.375081,-2.408166 7.24274,-2.408166 z m 6.020413,3.137913 q -3.02845,-1.696662 -6.075144,-1.696662 -5.473103,0 -9.760367,5.381884 -2.298703,3.229131 -2.298703,6.768404 0,5.765002 5.089986,9.888072 3.247374,2.517628 7.315714,2.517628 6.221093,0 10.490113,-6.312312 1.623688,-2.736552 1.623688,-5.765002 v -0.273655 q -0.01824,-6.294068 -6.20285,-10.380652 -0.09122,-0.07297 -0.182437,-0.127705 z m -5.381884,22.093091 h -0.510823 q -3.064938,0 -5.637296,-1.623687 l 3.812928,-6.695429 q 0.875696,0.565554 1.897342,0.565554 h 0.14595 q 0.912184,0 1.751393,-0.529067 l 3.867659,6.677186 q -2.572358,1.605443 -5.327153,1.605443 z m -2.499384,-14.74089 q -1.733149,1.331788 -1.733149,3.064938 v 0.09122 h -7.753563 v -0.291899 q 0,-5.254178 5.235935,-9.249544 0.328387,-0.237167 0.675016,-0.456091 l 3.831172,6.677185 q -0.127705,0.07297 -0.255411,0.164193 z m 11.91312,-2.700064 q 1.73315,2.645333 1.787881,5.85622 h -7.771806 q -0.01824,-1.076377 -0.583798,-1.915586 -0.620285,-0.912184 -1.404763,-1.368276 l 3.831172,-6.640698 q 2.280459,1.441251 4.141314,4.06834 z m -9.869828,2.937232 q 1.495981,0 2.517627,1.459494 0.456092,0.675016 0.456092,1.514225 0,1.295301 -1.24057,2.28046 -0.747991,0.565554 -1.5872,0.565554 h -0.127706 q -1.459494,0 -2.499383,-1.495982 -0.364874,-0.675016 -0.364874,-1.368276 v -0.09122 q 0,-1.331788 1.313545,-2.353434 0.711503,-0.510823 1.532469,-0.510823 z"
         style="fill:#000000;fill-opacity:1;stroke:none;stroke-width:0;stroke-miterlimit:4;stroke-dasharray:none;stroke-opacity:1"
         id="path853" />
    </g>
  </g>
</svg>
