<?xml version="1.0" encoding="UTF-8" standalone="no"?>
<!-- Created with Inkscape (http://www.inkscape.org/) -->

<svg
   xmlns:dc="http://purl.org/dc/elements/1.1/"
   xmlns:cc="http://creativecommons.org/ns#"
   xmlns:rdf="http://www.w3.org/1999/02/22-rdf-syntax-ns#"
   xmlns:svg="http://www.w3.org/2000/svg"
   xmlns="http://www.w3.org/2000/svg"
   xmlns:xlink="http://www.w3.org/1999/xlink"
   xmlns:sodipodi="http://sodipodi.sourceforge.net/DTD/sodipodi-0.dtd"
   xmlns:inkscape="http://www.inkscape.org/namespaces/inkscape"
   sodipodi:docname="meta_03.svg"
   inkscape:version="0.92.5 (2060ec1f9f, 2020-04-08)"
   sodipodi:version="0.32"
   id="svg1770"
   height="48"
   width="58"
   inkscape:output_extension="org.inkscape.output.svg.inkscape"
   version="1.1">
  <defs
     id="defs3">
    <inkscape:perspective
       sodipodi:type="inkscape:persp3d"
       inkscape:vp_x="0 : 24 : 1"
       inkscape:vp_y="0 : 1000 : 0"
       inkscape:vp_z="48 : 24 : 1"
       inkscape:persp3d-origin="24 : 16 : 1"
       id="perspective35" />
    <linearGradient
       id="linearGradient2103">
      <stop
         style="stop-color:#ffffff;stop-opacity:1;"
         offset="0"
         id="stop2105" />
      <stop
         style="stop-color:#e6e6e6;stop-opacity:1;"
         offset="1"
         id="stop2107" />
    </linearGradient>
    <linearGradient
       id="linearGradient2064">
      <stop
         style="stop-color:#b2b2b2;stop-opacity:1.0000000;"
         offset="0.0000000"
         id="stop2066" />
      <stop
         style="stop-color:#dcdcde;stop-opacity:1.0000000;"
         offset="1.0000000"
         id="stop2068" />
    </linearGradient>
    <linearGradient
       id="linearGradient2052">
      <stop
         style="stop-color:#aaaaaa;stop-opacity:1.0000000;"
         offset="0.0000000"
         id="stop2054" />
      <stop
         style="stop-color:#c8c8ca;stop-opacity:1.0000000;"
         offset="1.0000000"
         id="stop2056" />
    </linearGradient>
    <linearGradient
       id="linearGradient1784">
      <stop
         id="stop1785"
         offset="0.0000000"
         style="stop-color:#ffffff;stop-opacity:1.0000000;" />
      <stop
         id="stop1786"
         offset="1.0000000"
         style="stop-color:#dcdcde;stop-opacity:1.0000000;" />
    </linearGradient>
    <linearGradient
       y2="549.61267"
       x2="511.68912"
       y1="259.81915"
       x1="250.05389"
       gradientTransform="matrix(1.593044,0,0,1.241206,-129.6924,-73.34169)"
       gradientUnits="userSpaceOnUse"
       id="linearGradient1789"
       xlink:href="#linearGradient1784"
       inkscape:collect="always" />
    <linearGradient
       gradientUnits="userSpaceOnUse"
       y2="1222.1282"
       x2="69.096588"
       y1="1468.6681"
       x1="205.67348"
       gradientTransform="matrix(2.470094,0,0,0.404843,-5.695438,24.53693)"
       id="linearGradient1794"
       xlink:href="#linearGradient2052"
       inkscape:collect="always" />
    <linearGradient
       gradientUnits="userSpaceOnUse"
       y2="65.461601"
       x2="1180.5344"
       y1="284.34747"
       x1="1390.4071"
       gradientTransform="matrix(0.493865,0,0,2.024845,-5.695438,24.53693)"
       id="linearGradient1804"
       xlink:href="#linearGradient2064"
       inkscape:collect="always" />
    <linearGradient
       y2="549.61267"
       x2="511.68912"
       y1="259.81915"
       x1="250.05389"
       gradientTransform="matrix(1.593044,0,0,1.241206,-129.6924,-73.34169)"
       gradientUnits="userSpaceOnUse"
       id="linearGradient2083"
       xlink:href="#linearGradient1784"
       inkscape:collect="always" />
    <linearGradient
       y2="1222.1282"
       x2="69.096588"
       y1="1468.6681"
       x1="205.67348"
       gradientTransform="matrix(2.470094,0,0,0.404843,-5.695438,24.53693)"
       gradientUnits="userSpaceOnUse"
       id="linearGradient2085"
       xlink:href="#linearGradient2052"
       inkscape:collect="always" />
    <linearGradient
       y2="65.461601"
       x2="1180.5344"
       y1="284.34747"
       x1="1390.4071"
       gradientTransform="matrix(0.493865,0,0,2.024845,-5.695438,24.53693)"
       gradientUnits="userSpaceOnUse"
       id="linearGradient2087"
       xlink:href="#linearGradient2064"
       inkscape:collect="always" />
    <linearGradient
       y2="65.461601"
       x2="1180.5344"
       y1="284.34747"
       x1="1390.4071"
       gradientTransform="matrix(0.02351632,0,0,0.119682,11.31112,7.804527)"
       gradientUnits="userSpaceOnUse"
       id="linearGradient2094"
       xlink:href="#linearGradient2064"
       inkscape:collect="always" />
    <linearGradient
       y2="1222.1282"
       x2="69.096588"
       y1="1468.6681"
       x1="205.67348"
       gradientTransform="matrix(0.117618,0,0,0.02392903,2.29468,7.804527)"
       gradientUnits="userSpaceOnUse"
       id="linearGradient2098"
       xlink:href="#linearGradient2052"
       inkscape:collect="always" />
    <linearGradient
       y2="15.03308"
       x2="13.165886"
       y1="42.567181"
       x1="34.79232"
       gradientTransform="matrix(1.135639,0,0,1.098332,-5.414986,-5.868595)"
       gradientUnits="userSpaceOnUse"
       id="linearGradient2101"
       xlink:href="#linearGradient2103"
       inkscape:collect="always" />
    <linearGradient
       inkscape:collect="always"
       xlink:href="#linearGradient2103"
       id="linearGradient2416"
       gradientUnits="userSpaceOnUse"
       gradientTransform="matrix(1.135639,0,0,1.098332,-5.414986,-5.868595)"
       x1="34.79232"
       y1="42.567181"
       x2="13.165886"
       y2="15.03308" />
    <linearGradient
       inkscape:collect="always"
       xlink:href="#linearGradient2052"
       id="linearGradient2418"
       gradientUnits="userSpaceOnUse"
       gradientTransform="matrix(0.117618,0,0,0.02392903,2.29468,7.804527)"
       x1="205.67348"
       y1="1468.6681"
       x2="69.096588"
       y2="1222.1282" />
    <linearGradient
       inkscape:collect="always"
       xlink:href="#linearGradient2064"
       id="linearGradient2420"
       gradientUnits="userSpaceOnUse"
       gradientTransform="matrix(0.02351632,0,0,0.119682,11.31112,7.804527)"
       x1="1390.4071"
       y1="284.34747"
       x2="1180.5344"
       y2="65.461601" />
    <linearGradient
       inkscape:collect="always"
       xlink:href="#linearGradient2064"
       id="linearGradient2721"
       gradientUnits="userSpaceOnUse"
       gradientTransform="matrix(0.02351632,0,0,0.119682,11.31112,9.7235324)"
       x1="1390.4071"
       y1="284.34747"
       x2="1180.5344"
       y2="65.461601" />
    <linearGradient
       inkscape:collect="always"
       xlink:href="#linearGradient2052"
       id="linearGradient2725"
       gradientUnits="userSpaceOnUse"
       gradientTransform="matrix(0.117618,0,0,0.02392903,2.29468,9.7235324)"
       x1="205.67348"
       y1="1468.6681"
       x2="69.096588"
       y2="1222.1282" />
    <linearGradient
       inkscape:collect="always"
       xlink:href="#linearGradient2103"
       id="linearGradient2728"
       gradientUnits="userSpaceOnUse"
       gradientTransform="matrix(1.3965841,0,0,1.1183093,-7.5816242,-6.4401439)"
       x1="34.79232"
       y1="42.567181"
       x2="13.165886"
       y2="15.03308" />
    <inkscape:perspective
       id="perspective3628"
       inkscape:persp3d-origin="0.5 : 0.33333333 : 1"
       inkscape:vp_z="1 : 0.5 : 1"
       inkscape:vp_y="0 : 1000 : 0"
       inkscape:vp_x="0 : 0.5 : 1"
       sodipodi:type="inkscape:persp3d" />
    <inkscape:perspective
       id="perspective2856"
       inkscape:persp3d-origin="0.5 : 0.33333333 : 1"
       inkscape:vp_z="1 : 0.5 : 1"
       inkscape:vp_y="0 : 1000 : 0"
       inkscape:vp_x="0 : 0.5 : 1"
       sodipodi:type="inkscape:persp3d" />
    <inkscape:perspective
       id="perspective2882"
       inkscape:persp3d-origin="0.5 : 0.33333333 : 1"
       inkscape:vp_z="1 : 0.5 : 1"
       inkscape:vp_y="0 : 1000 : 0"
       inkscape:vp_x="0 : 0.5 : 1"
       sodipodi:type="inkscape:persp3d" />
  </defs>
  <sodipodi:namedview
     inkscape:window-y="25"
     inkscape:window-x="217"
     inkscape:window-height="972"
     inkscape:window-width="1399"
     inkscape:current-layer="layer1"
     inkscape:cy="24"
     inkscape:cx="29"
     inkscape:zoom="8.8103448"
     inkscape:pageshadow="2"
     inkscape:pageopacity="0.0"
     borderopacity="1.0"
     bordercolor="#666666"
     pagecolor="#ffffff"
     id="base"
     showgrid="false"
     inkscape:window-maximized="0"
     showguides="true"
     inkscape:guide-bbox="true">
    <sodipodi:guide
       orientation="0,1"
       position="13.725847,-18.581249"
       id="guide4513"
       inkscape:locked="false" />
  </sodipodi:namedview>
  <metadata
     id="metadata4">
    <rdf:RDF>
      <cc:Work
         rdf:about="">
        <dc:format>image/svg+xml</dc:format>
        <dc:type
           rdf:resource="http://purl.org/dc/dcmitype/StillImage" />
        <dc:title />
      </cc:Work>
    </rdf:RDF>
  </metadata>
  <g
     id="layer1"
     inkscape:groupmode="layer"
     inkscape:label="Layer 1">
    <rect
       ry="4.58845"
       rx="4.4116731"
       y="4.2626371"
       x="4.0676327"
       height="39.583111"
       width="49.973518"
       id="rect1788"
       style="fill:url(#linearGradient2728);fill-opacity:1;stroke:#000000;stroke-width:1;stroke-linecap:round;stroke-linejoin:miter;stroke-miterlimit:4;stroke-opacity:1;stroke-dasharray:none;stroke-dashoffset:0" />
    <path
       style="fill:#ffffff;fill-opacity:1;stroke:none"
       d="m 5.0481053,40.132178 c 0,-10.223586 0.016264,-30.1890134 0,-31.4662577 C 5.0284682,7.1238157 6.6948399,5.4537654 8.2300858,5.307163 9.2543395,5.2093558 39.605559,5.3660886 50.62464,5.3955514 39.782336,5.8669559 11.098977,7.309095 9.9996929,7.3918717 8.4024922,7.5121417 7.2092865,8.688987 7.070314,10.851587 7.0105024,11.782334 5.5489726,30.026444 5.0481053,40.132178 z"
       id="path3618"
       sodipodi:nodetypes="csscssc" />
    <path
       style="fill:#adadad;fill-opacity:1;stroke:none"
       d="m 53.233505,8.112138 c 0,10.223587 -0.01626,30.277403 0,31.554642 0.01964,1.542105 -1.646735,3.212155 -3.18198,3.358757 -1.024254,0.09781 -31.095353,-0.05893 -42.1144352,-0.08839 10.8423052,-0.471403 40.8868282,-0.624017 41.9818522,-0.7513 1.0347,-0.12027 2.310013,-1.426557 2.386485,-2.651651 0.05811,-0.930855 0.427211,-21.316323 0.928078,-31.422058 z"
       id="path3618-6"
       sodipodi:nodetypes="csscssc" />
    <path
       style="fill:#000000;fill-opacity:1;stroke-width:0.05395743"
       d="m 28.190779,37.341212 c -1.920927,-0.165552 -3.489296,-0.582448 -5.045019,-1.341035 -4.08207,-1.990458 -6.844789,-5.875613 -7.426518,-10.44375 -0.09858,-0.774159 -0.0864,-2.509564 0.02316,-3.296967 0.626483,-4.5029 3.358826,-8.29485 7.403366,-10.274398 1.87543,-0.917909 3.718424,-1.339632 5.85438,-1.339632 2.135958,0 3.978951,0.421723 5.854382,1.339632 4.094746,2.004123 6.847033,5.874057 7.426204,10.441833 0.08987,0.708855 0.08928,2.44202 -0.001,3.15651 -0.572525,4.526897 -3.367304,8.446892 -7.425135,10.414588 -1.317115,0.638688 -2.50832,1.007032 -3.935228,1.216851 -0.67428,0.09915 -2.215904,0.170547 -2.728515,0.126368 z m 3.021615,-1.934411 c 2.302267,-0.465109 4.250973,-1.489595 5.899663,-3.101608 0.600389,-0.587031 0.637119,-0.635073 0.610616,-0.798716 -0.05328,-0.329029 -0.57093,-1.283072 -1.032656,-1.903245 -0.254089,-0.341283 -0.575726,-0.846785 -0.714748,-1.123343 -0.237065,-0.471596 -0.253962,-0.533604 -0.272003,-0.998212 -0.01713,-0.441141 0.002,-0.569232 0.175116,-1.169848 0.240656,-0.835148 0.287899,-1.248226 0.173921,-1.520696 -0.07123,-0.17029 -0.147464,-0.229506 -0.532544,-0.413734 -0.247175,-0.118246 -0.801482,-0.329193 -1.23179,-0.468768 -1.692592,-0.549003 -2.210496,-1.011511 -2.211728,-1.975157 -0.001,-0.75458 0.306598,-1.436183 0.750159,-1.66247 0.653341,-0.33331 1.592503,-0.08783 2.026515,0.529692 0.234741,0.333997 0.255013,0.865257 0.06086,1.594741 -0.07711,0.28968 -0.140186,0.580758 -0.140186,0.646843 0,0.168479 0.348067,0.355848 0.661048,0.355848 0.519648,0 0.717285,-0.397578 0.710794,-1.429872 -0.0041,-0.658217 -0.0741,-1.035029 -0.355673,-1.915489 -0.262872,-0.822002 -0.646871,-1.29734 -1.22183,-1.512464 -0.477066,-0.178492 -1.380218,-0.294247 -1.707101,-0.218793 -0.658943,0.152104 -1.265089,0.780399 -1.530685,1.586615 -0.20906,0.634606 -0.29916,1.393875 -0.249135,2.099473 0.03686,0.519891 0.03399,0.542782 -0.06338,0.505277 -0.297198,-0.114489 -0.823785,-0.198533 -1.439463,-0.229742 -0.379491,-0.01926 -0.7004,-0.05184 -0.713129,-0.07242 -0.01273,-0.02058 -0.04796,-0.43565 -0.07831,-0.922333 -0.05826,-0.934494 -0.144048,-1.362583 -0.357465,-1.783744 -0.305782,-0.603429 -0.70472,-0.868163 -1.316724,-0.873764 -0.787956,-0.0072 -1.412523,0.606197 -1.653279,1.623756 -0.155714,0.658122 -0.01659,2.028398 0.27807,2.738822 0.144118,0.347473 0.36909,0.674267 0.464247,0.674372 0.08946,1.1e-4 0.422454,-0.334107 0.526367,-0.528272 0.04937,-0.09226 0.01997,-0.133781 -0.223188,-0.315162 -0.477241,-0.355991 -0.729817,-1.061606 -0.650757,-1.818002 0.02803,-0.268178 0.06611,-0.360586 0.217706,-0.528393 0.257519,-0.285043 0.753481,-0.4235 1.142125,-0.318849 0.601121,0.161865 1.146595,1.467525 0.902328,2.159841 -0.04712,0.133543 -0.08602,0.26039 -0.08646,0.281888 -0.0015,0.07128 0.314779,0.203667 0.495643,0.207518 0.09793,0.0022 0.226601,0.023 0.285955,0.0465 0.09545,0.0378 0.083,0.05453 -0.107599,0.144868 -0.120326,0.05703 -0.273267,0.191386 -0.346275,0.304202 -0.07192,0.111138 -0.171489,0.202066 -0.221272,0.202066 -0.147882,0 -0.280001,-0.194852 -0.309485,-0.456448 -0.01519,-0.13475 -0.0472,-0.244996 -0.07112,-0.244996 -0.02393,0 -0.238282,0.167757 -0.476332,0.3728 -0.238052,0.205037 -0.689003,0.5835 -1.002115,0.841024 -0.60328,0.496188 -0.80839,0.766323 -0.868812,1.144263 -0.06201,0.387845 -0.0087,0.475619 0.480633,0.791289 0.347991,0.224493 0.508998,0.373096 0.722996,0.667321 0.489839,0.673465 0.777898,0.795146 1.875645,0.792296 1.147384,-0.0028 2.368939,-0.278021 4.039821,-0.909584 1.421856,-0.537433 1.632729,-0.64253 1.948422,-0.97109 0.158662,-0.165129 0.314473,-0.300235 0.346243,-0.300235 0.03177,0 0.131883,0.06677 0.222471,0.148383 0.14153,0.127503 0.159642,0.173239 0.128737,0.325062 -0.02108,0.103555 -0.09769,0.220625 -0.1851,0.282869 -0.227114,0.161716 -0.905386,0.438439 -1.888869,0.77062 -0.488764,0.165084 -1.216454,0.458634 -1.617086,0.65233 -0.400635,0.193696 -0.946953,0.419049 -1.214043,0.500787 -0.480625,0.14708 -0.499646,0.148499 -1.850435,0.137687 -1.569463,-0.01255 -1.510642,-0.04419 -0.895265,0.481715 0.461727,0.394607 0.989786,0.667192 1.389176,0.717093 0.811996,0.101448 1.962346,-0.287287 4.318396,-1.459326 0.620028,-0.308439 1.194935,-0.560796 1.277573,-0.560796 0.158267,0 0.373914,0.211805 0.373914,0.367249 0,0.182503 -0.460568,0.5287 -0.9762,0.733781 -0.803046,0.319393 -2.321935,1.299095 -3.198498,2.063069 -0.233562,0.203562 -0.500651,0.425568 -0.593532,0.493348 -0.245383,0.179071 -0.659275,0.283726 -1.174107,0.296883 -0.533941,0.01365 -0.793873,-0.08861 -1.23623,-0.486326 -0.315773,-0.283909 -0.862894,-0.97732 -1.133603,-1.436706 -0.209868,-0.35614 -0.70418,-0.89819 -0.819086,-0.89819 -0.05022,0 -0.108125,0.140879 -0.171884,0.418169 -0.141443,0.615149 -0.407036,1.250856 -1.065152,2.54949 -0.652405,1.287359 -0.744468,1.587571 -0.763377,2.489352 l -0.01054,0.502565 0.269788,0.148197 c 0.601111,0.330201 1.730315,0.711309 2.684784,0.906128 0.919361,0.187649 1.202425,0.209345 2.522108,0.193278 1.129076,-0.01376 1.347806,-0.03153 1.996425,-0.162591 z M 30.758663,23.156362 c -0.245415,-0.08746 -0.438751,-0.260925 -0.385973,-0.346324 0.04554,-0.07368 0.674244,-0.0786 0.863171,-0.0068 0.09379,0.03566 0.138405,0.09306 0.138405,0.178059 0,0.25627 -0.215609,0.317573 -0.615603,0.175043 z m -8.446257,8.408117 c 0.428668,-0.642558 1.01457,-1.497871 1.302004,-1.900703 0.555435,-0.778419 0.73292,-1.088112 0.804007,-1.402917 0.02625,-0.116238 -0.0076,-1.20103 -0.08361,-2.677454 -0.183086,-3.557197 -0.267475,-6.259892 -0.225226,-7.21317 0.102396,-2.310349 0.527074,-3.762974 1.47743,-5.053602 0.160432,-0.217879 0.275853,-0.411983 0.256488,-0.431347 -0.05604,-0.05603 -1.18527,0.354523 -1.834413,0.666946 -2.734198,1.315921 -4.898283,3.713269 -5.906285,6.542915 -0.544169,1.527579 -0.775593,3.204663 -0.65251,4.728604 0.195773,2.423979 1.034203,4.571148 2.508257,6.423496 0.519949,0.653385 1.348512,1.485518 1.479147,1.485518 0.06419,0 0.349857,-0.381544 0.874718,-1.168286 z m 18.26124,-7.508058 c -3.33e-4,-1.262444 -0.01513,-1.517662 -0.119764,-2.062976 -0.185184,-0.965154 -0.561985,-2.210468 -0.668835,-2.210468 -0.06627,0 -0.06053,0.164777 0.06101,1.753618 0.186775,2.441626 0.479598,4.208796 0.666452,4.021994 0.04298,-0.04298 0.06139,-0.4954 0.06113,-1.502168 z M 27.640979,21.86208 c 0.02237,-0.346585 -0.177518,-0.91277 -0.383403,-1.086009 -0.200025,-0.168313 -0.330295,-0.172043 -0.291976,-0.0084 0.06502,0.277702 0.554218,1.388252 0.604295,1.371821 0.02989,-0.0098 0.06187,-0.134661 0.07109,-0.277443 z m 6.960611,-0.22704 c -0.02621,-0.347897 -0.134065,-0.612234 -0.355744,-0.871859 -0.229931,-0.26929 -0.875154,-0.351265 -0.875154,-0.111183 0,0.02553 0.123442,0.108992 0.274318,0.185448 0.251255,0.127321 0.290165,0.173894 0.46283,0.553973 0.207039,0.45575 0.386106,0.689207 0.466768,0.608548 0.02785,-0.02784 0.04,-0.192079 0.02698,-0.364927 z"
       id="path860"
       inkscape:connector-curvature="0" />
  </g>
</svg>
